<?xml version="1.0" encoding="UTF-8" standalone="no"?>
<svg
   xmlns:dc="http://purl.org/dc/elements/1.1/"
   xmlns:cc="http://creativecommons.org/ns#"
   xmlns:rdf="http://www.w3.org/1999/02/22-rdf-syntax-ns#"
   xmlns:svg="http://www.w3.org/2000/svg"
   xmlns="http://www.w3.org/2000/svg"
   viewBox="0 0 228 28"
   height="28"
   width="228"
   xml:space="preserve"
   id="svg2"
   version="1.1"><metadata
     id="metadata8"><rdf:RDF><cc:Work
         rdf:about=""><dc:format>image/svg+xml</dc:format><dc:type
           rdf:resource="http://purl.org/dc/dcmitype/StillImage" /></cc:Work></rdf:RDF></metadata><defs
     id="defs6" /><g
     transform="matrix(1.3333333,0,0,-1.3333333,0,28)"
     id="g10"><g
       transform="scale(0.1)"
       id="g12"><path
         id="path14"
         style="fill:#231f20;fill-opacity:1;fill-rule:evenodd;stroke:none"
         d="m 129.227,38.0352 c -12.27,-12.086 -27.043,-18.1914 -43.9653,-18.1914 -18.2695,0 -33.9258,5.9687 -46.5547,17.7734 -12.7148,11.8867 -19.1601,26.5859 -19.1601,43.793 0,16.914 6.2773,31.6098 18.6172,43.6878 12.3398,12.035 27.3437,18.129 44.6484,18.129 18.1285,0 33.5935,-5.989 46.0705,-17.805 12.484,-11.867 18.832,-26.6798 18.832,-44.0118 0,-16.6875 -6.231,-31.2618 -18.488,-43.375 z M 84.4492,156.367 c -21.5117,0 -40.1953,-7.359 -55.5195,-21.847 C 13.6836,120.094 5.94141,102.52 5.94141,82.3398 5.94141,61.3672 13.5742,43.2383 28.6406,28.4961 43.7305,13.7266 62.2539,6.23828 83.7578,6.23828 c 21.7892,0 40.4332,7.45312 55.3792,22.10552 14.957,14.5937 22.519,32.7773 22.519,53.996 0,19.9732 -7.66,37.4762 -22.793,52.0352 -15.136,14.582 -33.457,21.992 -54.4138,21.992" /><path
         id="path16"
         style="fill:#231f20;fill-opacity:1;fill-rule:evenodd;stroke:none"
         d="m 206.223,82.2031 v 0 c -0.996,0 -2.016,0.0117 -3.032,0.0117 l -3.73,0.1133 v 59.0429 h 3.785 c 11.68,0 20.317,-0.742 26.492,-2.254 6.535,-1.621 11.887,-4.746 15.867,-9.328 4.106,-4.66 6.157,-10.676 6.157,-17.894 0,-9.969 -4.098,-17.6137 -12.227,-22.6567 -7.648,-4.75 -18.531,-7.0352 -33.312,-7.0352 z M 228.238,74.5 c 12.852,2.875 22.387,7.8594 28.297,14.8203 5.942,6.918 8.828,14.7147 8.828,23.7817 0,11.25 -4.433,20.269 -13.601,27.527 -9.313,7.355 -21.629,11.078 -36.645,11.078 H 186.828 V 11.2148 h 12.633 v 60.918 h 10.34 l 41.082,-60.918 h 14.031 l -42.109,62.0508 5.433,1.2344" /><path
         id="path18"
         style="fill:#231f20;fill-opacity:1;fill-rule:evenodd;stroke:none"
         d="m 348.117,124.184 29.84,-65.7621 h -59.34 z M 297.473,11.2148 314.441,49.1016 h 67.735 l 17.183,-37.8868 h 12.86 L 348.211,152.012 284.746,11.2148 h 12.727" /><path
         id="path20"
         style="fill:#231f20;fill-opacity:1;fill-rule:evenodd;stroke:none"
         d="m 439.297,11.2148 h 12.676 V 121.891 L 561.406,9.85156 V 151.707 h -12.64 V 39.5938 L 439.297,152.117 V 11.2148" /><path
         id="path22"
         style="fill:#231f20;fill-opacity:1;fill-rule:evenodd;stroke:none"
         d="m 726.809,60.9922 c -8.082,-27.3086 -28.012,-41.1484 -59.27,-41.1484 -20.652,0 -37.137,6.2968 -49.027,18.746 -11.848,12.379 -17.86,26.5743 -17.86,42.1211 0,17.7266 6.246,32.6841 18.469,44.5121 12.25,11.793 27.692,17.793 45.988,17.793 19.59,0 37.164,-6.973 52.336,-20.75 l 9.598,9.464 c -9.98,9.063 -19.816,15.403 -29.242,18.864 -10.438,3.824 -22.133,5.773 -34.797,5.773 -21.008,0 -39.164,-7.359 -53.934,-21.847 -14.746,-14.508 -22.242,-32.282 -22.242,-52.8716 0,-19.5625 7.36,-37.2421 21.813,-52.4804 14.398,-15.2305 34.074,-22.92972 58.441,-22.92972 10.789,0 20.176,1.1836 27.875,3.54297 7.606,2.32425 14.824,6.26955 21.496,11.67185 6.707,5.4532 12.149,11.6914 16.16,18.5586 4.035,6.8867 6.739,13.2266 8,18.8399 1.121,5.0156 1.746,11.6054 1.914,19.6445 H 687.02 V 65.8438 h 41.253 l -1.464,-4.8516" /><path
         id="path24"
         style="fill:#231f20;fill-opacity:1;fill-rule:evenodd;stroke:none"
         d="m 837.68,139.047 v 12.66 H 763.184 V 11.2148 h 74.496 v 12.4454 h -62.059 v 58.4414 h 62.059 v 12.4492 h -62.059 v 44.4962 h 62.059" /><path
         id="path26"
         style="fill:#f5751f;fill-opacity:1;fill-rule:evenodd;stroke:none"
         d="m 929.277,155.492 h 82.063 V 135.27 H 949.277 V 98.3242 h 62.063 V 78.3359 H 949.516 V 7.42188 H 929.277 V 155.492" /><path
         id="path28"
         style="fill:#f5751f;fill-opacity:1;fill-rule:evenodd;stroke:none"
         d="m 1033.51,155.492 h 82.04 V 135.27 h -62.07 V 98.3242 h 62.07 V 78.3359 h -62.07 V 27.4336 h 62.07 V 7.42188 h -82.04 V 155.492" /><path
         id="path30"
         style="fill:#f5751f;fill-opacity:1;fill-rule:evenodd;stroke:none"
         d="M 1136.53,161.41 1251.47,48.9219 V 155.492 h 21.25 V 0.582031 L 1157.77,112.609 V 7.42969 h -21.24 V 161.41" /><path
         id="path32"
         style="fill:#f5751f;fill-opacity:1;fill-rule:evenodd;stroke:none"
         d="m 1341,190 -13.41,-19.758 h -23.82 l 25.32,32.305 h 22.21 l 26.24,-32.305 h -23.81 z m -38.98,-34.508 h 82.05 V 135.27 H 1322 V 98.3242 h 62.07 v -20 H 1322 V 27.4336 h 62.07 V 7.42188 h -82.05 V 155.492" /><path
         id="path34"
         style="fill:#f5751f;fill-opacity:1;fill-rule:evenodd;stroke:none"
         d="m 1404.75,155.492 h 90.54 V 135.27 h -35.31 V 7.42188 h -19.99 V 135.27 h -35.24 v 20.222" /><path
         id="path36"
         style="fill:#f5751f;fill-opacity:1;fill-rule:evenodd;stroke:none"
         d="M 1535.46,137.602 V 85.9961 c 29.83,-0.6055 44.74,8.0156 44.74,25.8989 0,6.281 -1.74,11.433 -5.23,15.402 -3.49,4.016 -8.13,6.715 -13.91,8.156 -5.83,1.422 -14.35,2.149 -25.6,2.149 z m -20.22,17.89 h 32.07 c 15.99,0 28.97,-3.957 38.99,-11.894 10.04,-7.942 15.06,-18.125 15.06,-30.496 0,-9.93 -3.24,-18.6762 -9.74,-26.2817 -6.49,-7.5664 -16.63,-12.9375 -30.37,-16.0312 l 42.98,-63.36722 h -23.18 l -41.03,60.93752 h -4.56 V 7.42188 h -20.22 V 155.492" /><path
         id="path38"
         style="fill:#f5751f;fill-opacity:1;fill-rule:evenodd;stroke:none"
         d="m 1627.1,155.492 h 82.03 V 135.27 h -62.06 V 98.3242 h 62.06 V 78.3359 h -62.06 V 27.4336 h 62.06 V 7.42188 H 1627.1 V 155.492" /></g></g></svg>