<?xml version="1.0" encoding="UTF-8" standalone="no"?>
<svg
   xmlns:dc="http://purl.org/dc/elements/1.1/"
   xmlns:cc="http://creativecommons.org/ns#"
   xmlns:rdf="http://www.w3.org/1999/02/22-rdf-syntax-ns#"
   xmlns:svg="http://www.w3.org/2000/svg"
   xmlns="http://www.w3.org/2000/svg"
   viewBox="0 0 217.33333 300"
   height="300"
   width="217.33333"
   xml:space="preserve"
   id="svg2"
   version="1.1"><metadata
     id="metadata8"><rdf:RDF><cc:Work
         rdf:about=""><dc:format>image/svg+xml</dc:format><dc:type
           rdf:resource="http://purl.org/dc/dcmitype/StillImage" /></cc:Work></rdf:RDF></metadata><defs
     id="defs6" /><g
     transform="matrix(1.3333333,0,0,-1.3333333,0,300)"
     id="g10"><g
       transform="scale(0.1)"
       id="g12"><path
         id="path14"
         style="fill:#231f20;fill-opacity:1;fill-rule:evenodd;stroke:none"
         d="m 246.137,504.457 c -23.649,-23.281 -52.141,-35.09 -84.75,-35.09 -35.215,0 -65.3948,11.528 -89.7854,34.285 -24.4961,22.899 -36.918,51.278 -36.918,84.43 0,32.613 12.0742,60.957 35.9141,84.227 23.8046,23.203 52.7153,34.972 86.0703,34.972 34.93,0 64.793,-11.558 88.809,-34.332 24.101,-22.89 36.32,-51.437 36.32,-84.867 0,-32.148 -12.027,-60.266 -35.66,-83.625 z M 159.805,732.602 C 118.32,732.602 82.3281,718.418 52.7852,690.461 23.3672,662.652 8.48047,628.785 8.48047,589.879 c 0,-40.438 14.71093,-75.371 43.71093,-103.824 29.0781,-28.457 64.8396,-42.907 106.2576,-42.907 42.024,0 77.965,14.34 106.824,42.614 28.786,28.16 43.391,63.215 43.391,104.117 0,38.488 -14.769,72.242 -43.918,100.32 -29.226,28.129 -64.531,42.403 -104.941,42.403" /><path
         id="path16"
         style="fill:#231f20;fill-opacity:1;fill-rule:evenodd;stroke:none"
         d="m 394.582,589.602 v 0 c -1.91,0 -3.863,0.043 -5.859,0.043 l -7.137,0.183 v 113.863 h 7.277 c 22.489,0 39.145,-1.441 51.035,-4.359 12.625,-3.098 22.95,-9.148 30.637,-17.973 7.895,-9 11.883,-20.613 11.883,-34.48 0,-19.258 -7.934,-33.961 -23.59,-43.707 -14.746,-9.121 -35.738,-13.57 -64.246,-13.57 z m 42.434,-14.868 c 24.781,5.567 43.16,15.207 54.574,28.571 11.476,13.379 17.023,28.394 17.023,45.863 0,21.727 -8.554,39.098 -26.226,53.082 -17.961,14.191 -41.715,21.383 -70.641,21.383 H 357.188 V 452.75 h 24.398 v 117.441 h 19.918 L 480.676,452.75 h 27.09 l -81.203,119.637 10.453,2.347" /><path
         id="path18"
         style="fill:#231f20;fill-opacity:1;fill-rule:evenodd;stroke:none"
         d="M 668.16,670.539 725.676,543.766 H 611.305 Z M 570.508,452.75 603.25,525.82 h 130.539 l 33.156,-73.07 h 24.801 L 668.344,724.219 545.961,452.75 h 24.547" /><path
         id="path20"
         style="fill:#231f20;fill-opacity:1;fill-rule:evenodd;stroke:none"
         d="m 843.973,452.75 h 24.398 V 666.121 L 1079.38,450.133 v 273.5 h -24.39 V 507.473 L 843.973,724.41 V 452.75" /><path
         id="path22"
         style="fill:#231f20;fill-opacity:1;fill-rule:evenodd;stroke:none"
         d="m 1398.29,548.711 c -15.6,-52.633 -54.05,-79.344 -114.28,-79.344 -39.85,0 -71.62,12.192 -94.55,36.141 -22.84,23.894 -34.42,51.25 -34.42,81.258 0,34.121 12.02,62.988 35.64,85.8 23.57,22.719 53.38,34.286 88.58,34.286 37.8,0 71.7,-13.469 100.97,-39.981 l 18.47,18.215 c -19.24,17.488 -38.18,29.738 -56.38,36.394 -20.1,7.36 -42.65,11.122 -67.05,11.122 -40.54,0 -75.52,-14.184 -103.99,-42.141 -28.46,-27.918 -42.86,-62.207 -42.86,-101.934 0,-37.722 14.12,-71.793 42.03,-101.172 27.77,-29.382 65.68,-44.207 112.65,-44.207 20.81,0 38.91,2.309 53.76,6.84 14.64,4.473 28.57,12.063 41.45,22.512 12.92,10.52 23.4,22.535 31.14,35.75 7.77,13.313 12.97,25.547 15.42,36.316 2.15,9.68 3.4,22.399 3.7,37.914 h -107.02 v -24.382 h 79.52 l -2.78,-9.387" /><path
         id="path24"
         style="fill:#231f20;fill-opacity:1;fill-rule:evenodd;stroke:none"
         d="m 1612.02,699.203 v 24.43 H 1468.41 V 452.75 h 143.61 v 24.012 h -119.66 v 112.664 h 119.66 v 24 h -119.66 v 85.777 h 119.66" /><path
         id="path26"
         style="fill:#f68b1a;fill-opacity:1;fill-rule:evenodd;stroke:none"
         d="M 12.6797,322.93 H 181.992 V 281.215 H 53.9297 v -76.25 H 181.992 V 163.707 H 54.4023 V 17.4141 H 12.6797 V 322.93" /><path
         id="path28"
         style="fill:#f68b1a;fill-opacity:1;fill-rule:evenodd;stroke:none"
         d="M 227.793,322.93 H 397.066 V 281.215 H 268.98 v -76.25 H 397.066 V 163.707 H 268.98 V 58.7109 H 397.066 V 17.4141 H 227.793 V 322.93" /><path
         id="path30"
         style="fill:#f68b1a;fill-opacity:1;fill-rule:evenodd;stroke:none"
         d="M 440.359,335.164 677.547,103.004 V 322.93 H 721.34 V 3.30078 L 484.195,234.457 V 17.4141 H 440.359 V 335.164" /><path
         id="path32"
         style="fill:#f68b1a;fill-opacity:1;fill-rule:evenodd;stroke:none"
         d="m 862.309,394.129 -27.692,-40.738 h -49.129 l 52.25,66.672 h 45.782 l 54.21,-66.672 H 888.559 Z M 781.891,322.93 H 951.164 V 281.215 H 823.121 v -76.25 H 951.164 V 163.707 H 823.121 V 58.7109 H 951.164 V 17.4141 H 781.891 V 322.93" /><path
         id="path34"
         style="fill:#f68b1a;fill-opacity:1;fill-rule:evenodd;stroke:none"
         d="M 993.848,322.93 H 1180.7 v -41.715 h -72.91 V 17.4141 h -41.22 V 281.215 h -72.722 v 41.715" /><path
         id="path36"
         style="fill:#f68b1a;fill-opacity:1;fill-rule:evenodd;stroke:none"
         d="M 1263.57,286.031 V 179.527 c 61.58,-1.257 92.32,16.563 92.32,53.465 0,12.965 -3.58,23.559 -10.76,31.77 -7.19,8.273 -16.81,13.859 -28.76,16.836 -11.99,2.906 -29.59,4.433 -52.8,4.433 z m -41.7,36.899 h 66.19 c 32.95,0 59.74,-8.164 80.45,-24.571 20.71,-16.363 31.06,-37.355 31.06,-62.918 0,-20.468 -6.7,-38.507 -20.11,-54.222 -13.4,-15.641 -34.3,-26.664 -62.67,-33.028 L 1405.5,17.4141 h -47.84 l -84.7,125.6839 h -9.39 V 17.4141 h -41.7 V 322.93" /><path
         id="path38"
         style="fill:#f68b1a;fill-opacity:1;fill-rule:evenodd;stroke:none"
         d="m 1452.67,322.93 h 169.28 v -41.715 h -128.07 v -76.25 h 128.07 V 163.707 H 1493.88 V 58.7109 h 128.07 V 17.4141 H 1452.67 V 322.93" /><path
         id="path40"
         style="fill:#1e7047;fill-opacity:1;fill-rule:evenodd;stroke:none"
         d="m 641.176,2240.43 131.926,-131.93 131.937,131.91 -263.863,0.02" /><path
         id="path42"
         style="fill:#f68b1a;fill-opacity:1;fill-rule:evenodd;stroke:none"
         d="m 773.086,878.195 c 205.215,0 400.964,81.7 538.114,224.345 l -59.27,28.67 H 665.645 v 844.74 h 634.595 v -71.72 l 59.56,41.32 c -105.76,136.86 -260.49,231.12 -436.445,265.81 L 773.102,2061.13 622.879,2211.36 C 290.934,2145.93 50.2773,1869.03 50.2773,1552.12 c 0,-371.59 324.2697,-673.925 722.8087,-673.925" /><path
         id="path44"
         style="fill:#a8a7a9;fill-opacity:1;fill-rule:evenodd;stroke:none"
         d="m 1248.17,1289.79 h 55.84 v 527.33 l 244.64,171.48 v -918.67 l -284.86,139.29 H 750.52 v 686.26 h 528.68 v 56.43 H 694.676 V 1152.78 H 1250.99 L 1604.5,979.945 V 2096.46 l -356.33,-249.83 v -556.84" /></g></g></svg>