<?xml version="1.0" encoding="UTF-8" standalone="no"?>
<svg
   xmlns:dc="http://purl.org/dc/elements/1.1/"
   xmlns:cc="http://creativecommons.org/ns#"
   xmlns:rdf="http://www.w3.org/1999/02/22-rdf-syntax-ns#"
   xmlns:svg="http://www.w3.org/2000/svg"
   xmlns="http://www.w3.org/2000/svg"
   viewBox="0 0 744 132"
   height="132"
   width="744"
   xml:space="preserve"
   id="svg2"
   version="1.1"><metadata
     id="metadata8"><rdf:RDF><cc:Work
         rdf:about=""><dc:format>image/svg+xml</dc:format><dc:type
           rdf:resource="http://purl.org/dc/dcmitype/StillImage" /></cc:Work></rdf:RDF></metadata><defs
     id="defs6" /><g
     transform="matrix(1.3333333,0,0,-1.3333333,0,132)"
     id="g10"><g
       transform="scale(0.1)"
       id="g12"><path
         id="path14"
         style="fill:#f5751f;fill-opacity:1;fill-rule:evenodd;stroke:none"
         d="M 783.332,200.195 C 705.621,94.2734 576.73,24.9844 430.871,24.9844 193.477,24.9844 1.05859,208.422 1.05859,434.734 c 0,196.813 145.53541,361.207 339.61341,400.719 l 0.476,0.098 89.719,-89.692 89.696,89.692 c 0.027,-0.004 0.265,-0.047 0.386,-0.071 123.328,-25.078 227.067,-100.601 286.34,-202.816 L 757.531,598.141 V 270.297 h -40.414 v 348.996 l 26.664,18.523 0.121,7.559 H 411.199 v -419.48 h 319.028 l 53.105,-25.7" /><path
         id="path16"
         style="fill:#1e6e41;fill-opacity:1;fill-rule:evenodd;stroke:none"
         d="m 503.852,847.43 -146.008,0.023 73.023,-73.004 72.985,72.981" /><path
         id="path18"
         style="fill:#a7a5a6;fill-opacity:1;fill-rule:evenodd;stroke:none"
         d="M 743.781,637.816 717.117,619.293 V 270.297 h 40.414 V 598.141 L 905.102,700.523 V 141.273 L 730.227,225.891 H 411.199 v 419.484 h 333.082 v 40.43 H 370.762 V 185.453 H 720.98 L 945.535,76.8008 V 777.805 L 743.781,637.816" /><path
         id="path20"
         style="fill:none;stroke:#231f20;stroke-width:9.37129974;stroke-linecap:butt;stroke-linejoin:miter;stroke-miterlimit:2.61310005;stroke-dasharray:none;stroke-opacity:1"
         d="M 743.781,637.816 717.117,619.293 V 270.297 h 40.414 V 598.141 L 905.102,700.523 V 141.273 L 730.227,225.891 H 411.199 v 419.484 h 333.082 v 40.43 H 370.762 V 185.453 H 720.98 L 945.535,76.8008 V 777.805 Z" /><path
         id="path22"
         style="fill:#231f20;fill-opacity:1;fill-rule:evenodd;stroke:none"
         d="m 1460.02,558.336 c -32.07,-31.633 -70.76,-47.664 -115.02,-47.664 -47.77,0 -88.79,15.707 -121.84,46.566 -33.26,31.063 -50.12,69.637 -50.12,114.606 0,44.277 16.4,82.719 48.74,114.301 32.28,31.503 71.59,47.441 116.83,47.441 47.41,0 87.95,-15.664 120.54,-46.598 32.7,-31.043 49.27,-69.804 49.27,-115.144 0,-43.68 -16.29,-81.817 -48.4,-113.508 z m -117.14,309.625 c -56.33,0 -105.18,-19.242 -145.26,-57.172 -39.91,-37.766 -60.16,-83.684 -60.16,-136.519 0,-54.903 19.98,-102.325 59.38,-140.93 39.45,-38.629 87.95,-58.242 144.2,-58.242 57.05,0 105.8,19.476 144.96,57.812 39.1,38.266 58.9,85.832 58.9,141.36 0,52.234 -20.04,98.054 -59.6,136.132 -39.67,38.203 -87.59,57.559 -142.42,57.559" /><path
         id="path24"
         style="fill:#231f20;fill-opacity:1;fill-rule:evenodd;stroke:none"
         d="m 1661.52,673.867 v 0 c -2.6,0 -5.26,0.063 -7.93,0.063 l -9.7,0.265 v 154.532 h 9.88 c 30.48,0 53.13,-1.922 69.27,-5.903 17.15,-4.242 31.12,-12.433 41.57,-24.398 10.69,-12.211 16.11,-27.981 16.11,-46.797 0,-26.117 -10.77,-46.102 -31.99,-59.301 -20,-12.426 -48.52,-18.461 -87.21,-18.461 z m 57.57,-20.144 c 33.67,7.562 58.62,20.605 74.12,38.734 15.54,18.188 23.09,38.563 23.09,62.273 0,29.493 -11.64,53.075 -35.63,72.024 -24.36,19.266 -56.59,29.039 -95.86,29.039 h -74.05 V 488.172 h 33.13 v 159.34 h 27 l 107.46,-159.34 h 36.79 l -110.21,162.363 14.16,3.188" /><path
         id="path26"
         style="fill:#231f20;fill-opacity:1;fill-rule:evenodd;stroke:none"
         d="m 2032.85,783.742 78.01,-172.105 h -155.18 z m -132.55,-295.566 44.45,99.137 h 177.16 l 44.97,-99.137 h 33.69 l -167.49,368.429 -166.1,-368.429 h 33.32" /><path
         id="path28"
         style="fill:#231f20;fill-opacity:1;fill-rule:evenodd;stroke:none"
         d="m 2271.43,488.172 h 33.14 V 777.73 l 286.42,-293.109 v 371.172 h -33.14 V 562.453 L 2271.43,856.855 V 488.172" /><path
         id="path30"
         style="fill:#231f20;fill-opacity:1;fill-rule:evenodd;stroke:none"
         d="m 3023.8,618.41 c -21.16,-71.496 -73.37,-107.734 -155.12,-107.734 -54.07,0 -97.23,16.527 -128.34,49.054 -30.97,32.422 -46.64,69.563 -46.64,110.293 0,46.325 16.28,85.504 48.32,116.434 31.96,30.883 72.43,46.551 120.26,46.551 51.27,0 97.28,-18.25 136.99,-54.258 l 25.08,24.703 c -26.1,23.762 -51.79,40.391 -76.51,49.453 -27.29,9.973 -57.9,15.059 -91.02,15.059 -55.03,0 -102.5,-19.254 -141.14,-57.192 -38.61,-37.867 -58.17,-84.402 -58.17,-138.3 0,-51.246 19.2,-97.446 57.04,-137.407 37.69,-39.793 89.13,-59.968 152.9,-59.968 28.27,0 52.82,3.148 72.97,9.289 19.86,6.07 38.79,16.371 56.27,30.57 17.53,14.27 31.74,30.566 42.24,48.488 10.58,18.086 17.64,34.684 20.92,49.356 2.94,13.074 4.61,30.328 5.04,51.441 h -145.26 v -33.121 h 107.91 l -3.74,-12.711" /><path
         id="path32"
         style="fill:#231f20;fill-opacity:1;fill-rule:evenodd;stroke:none"
         d="m 3313.86,822.656 v 33.137 H 3118.95 V 488.172 h 194.91 v 32.558 h -162.4 v 152.938 h 162.4 v 32.523 h -162.4 v 116.465 h 162.4" /><path
         id="path34"
         style="fill:#f5751f;fill-opacity:1;fill-rule:evenodd;stroke:none"
         d="m 3514.89,865.684 h 214.66 V 812.766 H 3567.16 V 716.09 h 162.39 V 663.781 H 3567.8 v -185.5 h -52.91 v 387.403" /><path
         id="path36"
         style="fill:#f5751f;fill-opacity:1;fill-rule:evenodd;stroke:none"
         d="m 3787.64,865.684 h 214.67 V 812.766 H 3839.92 V 716.09 h 162.39 V 663.781 H 3839.92 V 530.625 h 162.39 v -52.344 h -214.67 v 387.403" /><path
         id="path38"
         style="fill:#f5751f;fill-opacity:1;fill-rule:evenodd;stroke:none"
         d="M 4057.2,881.184 4358,586.781 v 278.907 h 55.54 V 460.359 L 4112.83,753.473 V 478.281 h -55.63 v 402.903" /><path
         id="path40"
         style="fill:#f5751f;fill-opacity:1;fill-rule:evenodd;stroke:none"
         d="m 4592.29,955.957 -35.15,-51.668 h -62.29 l 66.23,84.543 h 58.08 l 68.72,-84.543 h -62.32 z m -102.02,-90.273 h 214.66 V 812.766 H 4542.54 V 716.09 h 162.39 V 663.781 H 4542.54 V 530.625 h 162.39 v -52.344 h -214.66 v 387.403" /><path
         id="path42"
         style="fill:#f5751f;fill-opacity:1;fill-rule:evenodd;stroke:none"
         d="M 4759.05,865.684 H 4996 v -52.918 h -92.45 V 478.281 h -52.26 v 334.485 h -92.24 v 52.918" /><path
         id="path44"
         style="fill:#f5751f;fill-opacity:1;fill-rule:evenodd;stroke:none"
         d="M 5101.08,818.84 V 683.828 c 78.08,-1.594 117.09,21.008 117.09,67.805 0,16.445 -4.58,29.867 -13.67,40.32 -9.15,10.426 -21.32,17.524 -36.45,21.274 -15.24,3.734 -37.54,5.613 -66.97,5.613 z m -52.88,46.844 h 83.94 c 41.75,0 75.74,-10.387 101.98,-31.168 26.27,-20.77 39.42,-47.375 39.42,-79.782 0,-25.968 -8.5,-48.839 -25.49,-68.722 -16.99,-19.84 -43.48,-33.852 -79.47,-41.949 l 112.51,-165.782 h -60.7 l -107.41,159.348 h -11.9 V 478.281 h -52.88 v 387.403" /><path
         id="path46"
         style="fill:#f5751f;fill-opacity:1;fill-rule:evenodd;stroke:none"
         d="m 5340.86,865.684 h 214.67 V 812.766 H 5393.14 V 716.09 h 162.39 V 663.781 H 5393.14 V 530.625 h 162.39 v -52.344 h -214.67 v 387.403" /><path
         id="path48"
         style="fill:#231f20;fill-opacity:1;fill-rule:evenodd;stroke:none"
         d="m 1256.24,378.953 v -27.019 c -10.12,4.339 -18.8,6.511 -26.03,6.511 -5.39,0 -9.86,-1.086 -13.41,-3.254 -3.55,-2.171 -5.79,-4.671 -6.7,-7.496 -0.93,-2.828 -1.39,-10.355 -1.39,-22.582 l -0.02,-28.988 h 44.79 v -23.863 h -44.81 l -0.15,-190.6956 h -27.61 V 272.262 h -28.21 v 23.863 h 28.21 v 33.527 c 0,15.383 1.41,26.356 4.24,32.93 2.83,6.578 7.62,11.859 14.4,15.875 6.76,4.012 14.95,6.016 24.54,6.016 8.95,0 19.66,-1.84 32.15,-5.52" /><path
         id="path50"
         style="fill:#231f20;fill-opacity:1;fill-rule:evenodd;stroke:none"
         d="m 1479.38,210.539 c -3.69,14.723 -9.06,26.492 -16.1,35.301 -7.05,8.808 -16.36,15.906 -27.94,21.297 -11.58,5.39 -23.76,8.086 -36.52,8.086 -21.07,0 -39.17,-6.77 -54.3,-20.313 -11.06,-9.863 -19.42,-24.652 -25.08,-44.371 z m 0,-57.781 23.26,-12.227 c -7.63,-14.988 -16.44,-27.082 -26.44,-36.289 -10,-9.199 -21.26,-16.2029 -33.76,-20.9998 -12.51,-4.7969 -26.65,-7.1953 -42.44,-7.1953 -35,0 -62.37,11.4687 -82.11,34.4141 -19.74,22.937 -29.61,48.871 -29.61,77.793 0,27.215 8.36,51.469 25.07,72.766 21.18,27.082 49.54,40.628 85.07,40.628 36.58,0 65.79,-13.875 87.63,-41.613 15.53,-19.59 23.43,-44.043 23.69,-73.355 h -193.06 c 0.52,-24.926 8.49,-45.356 23.89,-61.289 15.4,-15.938 34.42,-23.907 57.06,-23.907 10.92,0 21.55,1.903 31.89,5.696 10.33,3.8 19.11,8.843 26.36,15.125 7.24,6.293 15.07,16.437 23.5,30.453" /><path
         id="path52"
         style="fill:#231f20;fill-opacity:1;fill-rule:evenodd;stroke:none"
         d="m 1565.25,296.125 h 27.61 v -38.457 c 11.04,14.723 23.27,25.738 36.68,33.035 13.41,7.297 28,10.945 43.78,10.945 16.04,0 30.27,-4.074 42.69,-12.23 12.43,-8.148 21.6,-19.129 27.51,-32.934 5.93,-13.8 8.87,-35.293 8.87,-64.484 V 81.5664 h -27.6 V 183.914 c 0,24.719 -1.03,41.215 -3.07,49.5 -3.2,14.199 -9.34,24.879 -18.41,32.047 -9.07,7.164 -20.91,10.75 -35.5,10.75 -16.7,0 -31.66,-5.523 -44.88,-16.57 -13.21,-11.043 -21.92,-24.715 -26.12,-41.016 -2.64,-10.648 -3.95,-30.105 -3.95,-58.375 V 81.5664 h -27.61 V 296.125" /><path
         id="path54"
         style="fill:#231f20;fill-opacity:1;fill-rule:evenodd;stroke:none"
         d="m 1903.16,385.656 h 27.41 l 57.18,-50.683 h -35.48 l -34.72,29.972 -36.14,-29.972 h -36.82 z m 93.08,-175.117 c -3.69,14.723 -9.05,26.488 -16.1,35.297 -7.04,8.809 -16.35,15.906 -27.93,21.301 -11.58,5.386 -23.76,8.086 -36.53,8.086 -21.07,0 -39.16,-6.778 -54.3,-20.313 -11.06,-9.859 -19.42,-24.648 -25.08,-44.371 z m 0,-57.781 23.27,-12.227 c -7.63,-14.988 -16.45,-27.086 -26.46,-36.285 -10,-9.203 -21.24,-16.203 -33.75,-20.9999 -12.5,-4.8047 -26.64,-7.1992 -42.44,-7.1992 -35,0 -62.36,11.4687 -82.1,34.4101 -19.74,22.938 -29.61,48.871 -29.61,77.793 0,27.219 8.35,51.477 25.06,72.773 21.19,27.082 49.54,40.622 85.08,40.622 36.58,0 65.79,-13.868 87.63,-41.606 15.53,-19.59 23.42,-44.043 23.69,-73.359 h -193.07 c 0.53,-24.922 8.49,-45.352 23.9,-61.293 15.4,-15.934 34.42,-23.903 57.06,-23.903 10.92,0 21.55,1.899 31.88,5.7 10.33,3.793 19.12,8.839 26.36,15.121 7.24,6.289 15.07,16.441 23.5,30.453" /><path
         id="path56"
         style="fill:#231f20;fill-opacity:1;fill-rule:evenodd;stroke:none"
         d="m 2106.18,375.793 h 27.61 v -79.668 h 43.77 v -23.863 h -43.77 V 81.5664 h -27.61 V 272.262 h -37.67 v 23.863 h 37.67 v 79.668" /><path
         id="path58"
         style="fill:#231f20;fill-opacity:1;fill-rule:evenodd;stroke:none"
         d="m 2212.56,296.125 h 28.21 V 264.77 c 8.41,12.355 17.28,21.593 26.62,27.707 9.32,6.117 19.06,9.171 29.19,9.171 7.62,0 15.77,-2.437 24.44,-7.296 l -14.39,-23.27 c -5.79,2.496 -10.65,3.746 -14.59,3.746 -9.21,0 -18.08,-3.781 -26.62,-11.34 -8.55,-7.558 -15.06,-19.297 -19.53,-35.203 -3.42,-12.226 -5.12,-36.937 -5.12,-74.148 V 81.5664 h -28.21 V 296.125" /><path
         id="path60"
         style="fill:#231f20;fill-opacity:1;fill-rule:evenodd;stroke:none"
         d="m 2529.17,210.539 c -3.68,14.723 -9.04,26.492 -16.1,35.301 -7.04,8.808 -16.35,15.906 -27.93,21.297 -11.59,5.39 -23.76,8.086 -36.53,8.086 -21.06,0 -39.16,-6.77 -54.29,-20.313 -11.07,-9.863 -19.42,-24.652 -25.08,-44.371 z m 0,-57.781 23.27,-12.227 c -7.63,-14.988 -16.45,-27.082 -26.45,-36.289 -10.01,-9.199 -21.25,-16.2029 -33.75,-20.9998 -12.51,-4.7969 -26.65,-7.1953 -42.44,-7.1953 -35,0 -62.37,11.4687 -82.11,34.4141 -19.74,22.937 -29.61,48.871 -29.61,77.793 0,27.215 8.35,51.469 25.07,72.766 21.18,27.082 49.54,40.628 85.07,40.628 36.58,0 65.79,-13.875 87.64,-41.613 15.52,-19.59 23.41,-44.043 23.68,-73.355 h -193.06 c 0.52,-24.926 8.49,-45.356 23.89,-61.289 15.4,-15.938 34.42,-23.907 57.06,-23.907 10.93,0 21.55,1.903 31.89,5.696 10.33,3.8 19.11,8.843 26.35,15.125 7.25,6.293 15.08,16.437 23.5,30.453" /><path
         id="path62"
         style="fill:#231f20;fill-opacity:1;fill-rule:evenodd;stroke:none"
         d="m 2722.92,272.66 -17.74,-18.344 c -14.78,14.329 -29.2,21.497 -43.3,21.497 -8.97,0 -16.65,-2.958 -23.04,-8.875 -6.4,-5.915 -9.59,-12.817 -9.59,-20.704 0,-6.972 2.63,-13.613 7.9,-19.918 5.27,-6.449 16.34,-14 33.2,-22.679 20.56,-10.649 34.52,-20.903 41.9,-30.762 7.25,-9.992 10.87,-21.234 10.87,-33.723 0,-17.621 -6.19,-32.543 -18.57,-44.7653 -12.38,-12.2265 -27.85,-18.3437 -46.41,-18.3437 -12.38,0 -24.2,2.6992 -35.45,8.0898 -11.26,5.3867 -20.58,12.8164 -27.95,22.2812 l 17.35,19.715 c 14.11,-15.902 29.06,-23.852 44.87,-23.852 11.07,0 20.49,3.547 28.27,10.649 7.77,7.097 11.66,15.441 11.66,25.043 0,7.886 -2.57,14.918 -7.71,21.101 -5.14,6.043 -16.73,13.668 -34.78,22.875 -19.37,9.985 -32.54,19.848 -39.52,29.582 -6.99,9.723 -10.48,20.832 -10.48,33.328 0,16.297 5.56,29.84 16.69,40.625 11.13,10.778 25.18,16.168 42.18,16.168 19.75,0 39.63,-9.664 59.65,-28.988" /><path
         id="path64"
         style="fill:#231f20;fill-opacity:1;fill-rule:evenodd;stroke:none"
         d="m 2987.26,296.125 h 29.38 l 72.03,-156.406 71.15,156.406 h 29.57 l -98.2,-214.5586 h -5.12 l -98.81,214.5586" /><path
         id="path66"
         style="fill:#231f20;fill-opacity:1;fill-rule:evenodd;stroke:none"
         d="m 3336.9,274.633 c -22.95,0 -42.68,-8.485 -59.17,-25.438 -16.5,-16.968 -24.73,-37.472 -24.73,-61.531 0,-15.516 3.75,-29.976 11.27,-43.387 7.52,-13.406 17.68,-23.761 30.48,-31.058 12.8,-7.297 26.84,-10.946 42.15,-10.946 15.3,0 29.35,3.649 42.15,10.946 12.8,7.297 22.97,17.652 30.48,31.058 7.52,13.411 11.28,27.871 11.28,43.387 0,24.059 -8.27,44.563 -24.83,61.531 -16.57,16.953 -36.25,25.438 -59.08,25.438 z m 0.1,27.012 c 33.05,0 60.45,-11.965 82.18,-35.891 19.76,-21.82 29.63,-47.66 29.63,-77.504 0,-29.973 -10.43,-56.168 -31.31,-78.582 -20.87,-22.4102 -47.71,-33.625 -80.5,-33.625 -32.93,0 -59.83,11.2148 -80.7,33.625 -20.87,22.414 -31.31,48.609 -31.31,78.582 0,29.711 9.87,55.488 29.63,77.309 21.73,24.058 49.19,36.086 82.38,36.086" /><path
         id="path68"
         style="fill:#231f20;fill-opacity:1;fill-rule:evenodd;stroke:none"
         d="m 3499.79,81.5703 h 27.6055 v 297.387 H 3499.79 Z" /><path
         id="path70"
         style="fill:#231f20;fill-opacity:1;fill-rule:evenodd;stroke:none"
         d="m 3769.46,210.539 c -3.68,14.723 -9.05,26.492 -16.09,35.301 -7.04,8.808 -16.36,15.906 -27.94,21.297 -11.59,5.39 -23.76,8.086 -36.52,8.086 -21.07,0 -39.17,-6.77 -54.3,-20.313 -11.06,-9.863 -19.43,-24.652 -25.08,-44.371 z m 0,-57.781 23.27,-12.227 c -7.63,-14.988 -16.44,-27.082 -26.45,-36.289 -10,-9.199 -21.24,-16.2029 -33.75,-20.9998 -12.51,-4.7969 -26.65,-7.1953 -42.44,-7.1953 -35,0 -62.37,11.4687 -82.11,34.4141 -19.74,22.937 -29.61,48.871 -29.61,77.793 0,27.215 8.35,51.469 25.07,72.766 21.19,27.082 49.54,40.628 85.07,40.628 36.58,0 65.79,-13.875 87.63,-41.613 15.54,-19.59 23.43,-44.043 23.69,-73.355 h -193.06 c 0.52,-24.926 8.49,-45.356 23.89,-61.289 15.4,-15.938 34.42,-23.907 57.06,-23.907 10.92,0 21.55,1.903 31.89,5.696 10.33,3.8 19.11,8.843 26.35,15.125 7.25,6.293 15.08,16.437 23.5,30.453" /><path
         id="path72"
         style="fill:#231f20;fill-opacity:1;fill-rule:evenodd;stroke:none"
         d="m 3879.4,375.793 h 27.61 v -79.668 h 43.78 v -23.863 h -43.78 V 81.5664 H 3879.4 V 272.262 h -37.67 v 23.863 h 37.67 v 79.668" /><path
         id="path74"
         style="fill:#231f20;fill-opacity:1;fill-rule:evenodd;stroke:none"
         d="m 4104.11,272.66 -17.74,-18.344 c -14.77,14.329 -29.21,21.497 -43.31,21.497 -8.97,0 -16.65,-2.958 -23.03,-8.875 -6.4,-5.915 -9.59,-12.817 -9.59,-20.704 0,-6.972 2.63,-13.613 7.9,-19.918 5.28,-6.449 16.34,-14 33.21,-22.679 20.55,-10.649 34.51,-20.903 41.9,-30.762 7.23,-9.992 10.86,-21.234 10.86,-33.723 0,-17.621 -6.19,-32.543 -18.57,-44.7653 -12.38,-12.2265 -27.85,-18.3437 -46.41,-18.3437 -12.38,0 -24.2,2.6992 -35.45,8.0898 -11.26,5.3867 -20.58,12.8164 -27.95,22.2812 l 17.35,19.715 c 14.1,-15.902 29.06,-23.852 44.87,-23.852 11.07,0 20.49,3.547 28.27,10.649 7.77,7.097 11.66,15.441 11.66,25.043 0,7.886 -2.57,14.918 -7.7,21.101 -5.15,6.043 -16.74,13.668 -34.79,22.875 -19.37,9.985 -32.54,19.848 -39.53,29.582 -6.98,9.723 -10.47,20.832 -10.47,33.328 0,16.297 5.56,29.84 16.69,40.625 11.13,10.778 25.19,16.168 42.18,16.168 19.75,0 39.63,-9.664 59.65,-28.988" /><path
         id="path76"
         style="fill:#231f20;fill-opacity:1;fill-rule:evenodd;stroke:none"
         d="m 4499.59,275.023 c -23.87,0 -43.97,-8.343 -60.3,-25.015 -16.33,-16.68 -24.49,-37.43 -24.49,-62.25 0,-16.285 3.63,-30.922 10.91,-43.922 7.29,-13 17.71,-23.309 31.29,-30.926 13.57,-7.613 27.9,-11.43 42.99,-11.43 14.82,0 28.75,3.836 41.8,11.528 13.06,7.683 23.45,18.414 31.19,32.207 7.74,13.785 11.61,28.226 11.61,43.336 0,15.23 -3.84,29.676 -11.51,43.328 -7.68,13.66 -18,24.266 -30.99,31.82 -12.98,7.547 -27.15,11.324 -42.5,11.324 z m -110.43,21.102 h 27.61 v -39.441 c 10.9,14.992 23.44,26.226 37.63,33.718 14.18,7.5 30.01,11.246 47.47,11.246 30.47,0 56.54,-10.98 78.21,-32.937 21.67,-21.957 32.51,-48.375 32.51,-79.273 0,-31.551 -10.74,-58.344 -32.21,-80.36 -21.48,-22.0272 -47.38,-33.035 -77.72,-33.035 -17.08,0 -32.77,3.5468 -47.08,10.6484 -14.31,7.1016 -27.26,17.6796 -38.81,31.7536 V 3.08203 h -27.61 V 296.125" /><path
         id="path78"
         style="fill:#231f20;fill-opacity:1;fill-rule:evenodd;stroke:none"
         d="m 4769.76,274.633 c -22.96,0 -42.69,-8.485 -59.17,-25.438 -16.5,-16.968 -24.74,-37.472 -24.74,-61.531 0,-15.516 3.76,-29.976 11.28,-43.387 7.52,-13.406 17.68,-23.761 30.48,-31.058 12.8,-7.297 26.84,-10.946 42.15,-10.946 15.3,0 29.35,3.649 42.15,10.946 12.8,7.297 22.96,17.652 30.48,31.058 7.52,13.411 11.28,27.871 11.28,43.387 0,24.059 -8.28,44.563 -24.84,61.531 -16.56,16.953 -36.25,25.438 -59.07,25.438 z m 0.1,27.012 c 33.06,0 60.44,-11.965 82.18,-35.891 19.75,-21.82 29.63,-47.66 29.63,-77.504 0,-29.973 -10.44,-56.168 -31.31,-78.582 -20.88,-22.4102 -47.71,-33.625 -80.5,-33.625 -32.93,0 -59.83,11.2148 -80.7,33.625 -20.87,22.414 -31.32,48.609 -31.32,78.582 0,29.711 9.88,55.488 29.64,77.309 21.73,24.058 49.19,36.086 82.38,36.086" /><path
         id="path80"
         style="fill:#231f20;fill-opacity:1;fill-rule:evenodd;stroke:none"
         d="m 4926.33,296.125 h 28.21 V 264.77 c 8.41,12.355 17.28,21.593 26.62,27.707 9.33,6.117 19.06,9.171 29.19,9.171 7.62,0 15.77,-2.437 24.45,-7.296 l -14.4,-23.27 c -5.79,2.496 -10.65,3.746 -14.59,3.746 -9.2,0 -18.08,-3.781 -26.62,-11.34 -8.55,-7.558 -15.06,-19.297 -19.52,-35.203 -3.42,-12.226 -5.13,-36.937 -5.13,-74.148 V 81.5664 h -28.21 V 296.125" /><path
         id="path82"
         style="fill:#231f20;fill-opacity:1;fill-rule:evenodd;stroke:none"
         d="m 5086.36,375.793 h 27.61 v -79.668 h 43.78 v -23.863 h -43.78 V 81.5664 h -27.61 V 272.262 h -37.66 v 23.863 h 37.66 v 79.668" /><path
         id="path84"
         style="fill:#231f20;fill-opacity:1;fill-rule:evenodd;stroke:none"
         d="m 5383.84,210.539 c -3.68,14.723 -9.05,26.492 -16.09,35.301 -7.05,8.808 -16.36,15.906 -27.94,21.297 -11.58,5.39 -23.76,8.086 -36.53,8.086 -21.06,0 -39.16,-6.77 -54.3,-20.313 -11.05,-9.863 -19.41,-24.652 -25.07,-44.371 z m 0,-57.781 23.27,-12.227 c -7.63,-14.988 -16.45,-27.082 -26.45,-36.289 -10,-9.199 -21.25,-16.2029 -33.75,-20.9998 -12.51,-4.7969 -26.65,-7.1953 -42.44,-7.1953 -35.01,0 -62.37,11.4687 -82.11,34.4141 -19.74,22.937 -29.61,48.871 -29.61,77.793 0,27.215 8.36,51.469 25.07,72.766 21.18,27.082 49.54,40.628 85.07,40.628 36.59,0 65.8,-13.875 87.64,-41.613 15.52,-19.59 23.42,-44.043 23.68,-73.355 h -193.06 c 0.52,-24.926 8.49,-45.356 23.89,-61.289 15.4,-15.938 34.42,-23.907 57.06,-23.907 10.92,0 21.55,1.903 31.89,5.696 10.33,3.8 19.12,8.843 26.35,15.125 7.25,6.293 15.07,16.437 23.5,30.453" /><path
         id="path86"
         style="fill:#231f20;fill-opacity:1;fill-rule:evenodd;stroke:none"
         d="m 5577.59,272.66 -17.74,-18.344 c -14.78,14.329 -29.21,21.497 -43.31,21.497 -8.96,0 -16.64,-2.958 -23.03,-8.875 -6.4,-5.915 -9.59,-12.817 -9.59,-20.704 0,-6.972 2.63,-13.613 7.9,-19.918 5.27,-6.449 16.34,-14 33.2,-22.679 20.55,-10.649 34.52,-20.903 41.9,-30.762 7.25,-9.992 10.87,-21.234 10.87,-33.723 0,-17.621 -6.19,-32.543 -18.57,-44.7653 -12.38,-12.2265 -27.85,-18.3437 -46.41,-18.3437 -12.38,0 -24.2,2.6992 -35.45,8.0898 -11.27,5.3867 -20.57,12.8164 -27.95,22.2812 l 17.36,19.715 c 14.1,-15.902 29.05,-23.852 44.86,-23.852 11.07,0 20.49,3.547 28.27,10.649 7.77,7.097 11.66,15.441 11.66,25.043 0,7.886 -2.57,14.918 -7.71,21.101 -5.14,6.043 -16.73,13.668 -34.78,22.875 -19.37,9.985 -32.54,19.848 -39.53,29.582 -6.97,9.723 -10.47,20.832 -10.47,33.328 0,16.297 5.56,29.84 16.69,40.625 11.13,10.778 25.19,16.168 42.18,16.168 19.75,0 39.63,-9.664 59.65,-28.988" /><path
         id="path88"
         style="fill:#f5751f;fill-opacity:1;fill-rule:evenodd;stroke:none"
         d="m 4296.19,193.883 c 0,-25.059 -20.31,-45.367 -45.37,-45.367 -25.06,0 -45.37,20.308 -45.37,45.367 0,25.058 20.31,45.375 45.37,45.375 25.06,0 45.37,-20.317 45.37,-45.375" /><path
         id="path90"
         style="fill:#f5751f;fill-opacity:1;fill-rule:evenodd;stroke:none"
         d="m 2926.36,193.883 c 0,-25.059 -20.31,-45.367 -45.37,-45.367 -25.06,0 -45.37,20.308 -45.37,45.367 0,25.058 20.31,45.375 45.37,45.375 25.06,0 45.37,-20.317 45.37,-45.375" /></g></g></svg>